<svg width="48" height="48" viewBox="0 0 48 48" fill="none" xmlns="http://www.w3.org/2000/svg">
<g clip-path="url(#clip0_924_1409)">
<path fill-rule="evenodd" clip-rule="evenodd" d="M12 0C8.8174 0 5.76516 1.26428 3.51472 3.51472C1.26428 5.76516 0 8.8174 0 12L0 36C0 39.1826 1.26428 42.2348 3.51472 44.4853C5.76516 46.7357 8.8174 48 12 48H36C39.1826 48 42.2348 46.7357 44.4853 44.4853C46.7357 42.2348 48 39.1826 48 36V12C48 8.8174 46.7357 5.76516 44.4853 3.51472C42.2348 1.26428 39.1826 0 36 0L12 0ZM33.75 24C33.1533 24 32.581 23.7629 32.159 23.341C31.7371 22.919 31.5 22.3467 31.5 21.75V19.68L21 30.18V36.75C21 37.3467 20.7629 37.919 20.341 38.341C19.919 38.7629 19.3467 39 18.75 39C18.1533 39 17.581 38.7629 17.159 38.341C16.7371 37.919 16.5 37.3467 16.5 36.75V31.677C16.4377 31.6214 16.3786 31.5623 16.323 31.5H11.25C10.6533 31.5 10.081 31.2629 9.65901 30.841C9.23705 30.419 9 29.8467 9 29.25C9 28.6533 9.23705 28.081 9.65901 27.659C10.081 27.2371 10.6533 27 11.25 27H17.82L28.32 16.5H26.25C25.6533 16.5 25.081 16.2629 24.659 15.841C24.2371 15.419 24 14.8467 24 14.25C24 13.6533 24.2371 13.081 24.659 12.659C25.081 12.2371 25.6533 12 26.25 12H36V21.75C36 22.3467 35.7629 22.919 35.341 23.341C34.919 23.7629 34.3467 24 33.75 24Z" fill="url(#paint0_linear_924_1409)"/>
<path d="M33.75 24C33.1533 24 32.581 23.7629 32.159 23.341C31.7371 22.919 31.5 22.3467 31.5 21.75V19.68L21 30.18V36.75C21 37.3467 20.7629 37.919 20.341 38.341C19.919 38.7629 19.3467 39 18.75 39C18.1533 39 17.581 38.7629 17.159 38.341C16.7371 37.919 16.5 37.3467 16.5 36.75V31.677C16.4377 31.6214 16.3786 31.5623 16.323 31.5H11.25C10.6533 31.5 10.081 31.2629 9.65901 30.841C9.23705 30.419 9 29.8467 9 29.25C9 28.6533 9.23705 28.081 9.65901 27.659C10.081 27.2371 10.6533 27 11.25 27H17.82L28.32 16.5H26.25C25.6533 16.5 25.081 16.2629 24.659 15.841C24.2371 15.419 24 14.8467 24 14.25C24 13.6533 24.2371 13.081 24.659 12.659C25.081 12.2371 25.6533 12 26.25 12H36V21.75C36 22.3467 35.7629 22.919 35.341 23.341C34.919 23.7629 34.3467 24 33.75 24Z" fill="#D9D9D9"/>
</g>
<defs>
<linearGradient id="paint0_linear_924_1409" x1="52" y1="-3" x2="-14" y2="51.5" gradientUnits="userSpaceOnUse">
<stop stop-color="#8B74CE"/>
<stop offset="1" stop-color="#3C2CCC"/>
</linearGradient>
<clipPath id="clip0_924_1409">
<rect width="48" height="48" fill="white"/>
</clipPath>
</defs>
</svg>
